<?xml version="1.0" encoding="utf-8" standalone="no"?>
<!DOCTYPE svg PUBLIC "-//W3C//DTD SVG 1.1//EN"
  "http://www.w3.org/Graphics/SVG/1.1/DTD/svg11.dtd">
<!-- Created with matplotlib (https://matplotlib.org/) -->
<svg height="216pt" version="1.1" viewBox="0 0 648 216" width="648pt" xmlns="http://www.w3.org/2000/svg" xmlns:xlink="http://www.w3.org/1999/xlink">
 <metadata>
  <rdf:RDF xmlns:cc="http://creativecommons.org/ns#" xmlns:dc="http://purl.org/dc/elements/1.1/" xmlns:rdf="http://www.w3.org/1999/02/22-rdf-syntax-ns#">
   <cc:Work>
    <dc:type rdf:resource="http://purl.org/dc/dcmitype/StillImage"/>
    <dc:date>2020-10-15T11:52:01.744891</dc:date>
    <dc:format>image/svg+xml</dc:format>
    <dc:creator>
     <cc:Agent>
      <dc:title>Matplotlib v3.3.2, https://matplotlib.org/</dc:title>
     </cc:Agent>
    </dc:creator>
   </cc:Work>
  </rdf:RDF>
 </metadata>
 <defs>
  <style type="text/css">*{stroke-linecap:butt;stroke-linejoin:round;}</style>
 </defs>
 <g id="figure_1">
  <g id="patch_1">
   <path d="M 0 216 
L 648 216 
L 648 0 
L 0 0 
z
" style="fill:#ffffff;"/>
  </g>
  <g id="axes_1">
   <g id="patch_2">
    <path d="M 12.96 205.2 
L 213.630968 205.2 
L 213.630968 10.8 
L 12.96 10.8 
z
" style="fill:#ffffff;"/>
   </g>
   <g id="matplotlib.axis_1"/>
   <g id="matplotlib.axis_2"/>
   <g id="line2d_1">
    <path clip-path="url(#p9fb76e35e1)" d="M 22.081408 196.363636 
L 23.905689 190.79077 
L 25.729971 185.78197 
L 27.554252 181.250933 
L 29.378534 177.128047 
L 31.202815 173.356532 
L 33.027097 169.889616 
L 34.851378 166.688413 
L 36.67566 163.720332 
L 38.499941 160.957841 
L 40.324223 158.377528 
L 42.148504 155.959347 
L 43.972786 153.686036 
L 45.797067 151.542645 
L 47.621349 149.516158 
L 49.44563 147.595189 
L 51.269912 145.769732 
L 53.094194 144.030952 
L 54.918475 142.371018 
L 56.742757 140.782963 
L 58.567038 139.260563 
L 60.39132 137.798238 
L 62.215601 136.390969 
L 64.039883 135.034226 
L 65.864164 133.723906 
L 67.688446 132.456285 
L 69.512727 131.227965 
L 71.337009 130.035845 
L 73.16129 128.877079 
L 74.985572 127.749053 
L 76.809853 126.649353 
L 78.634135 125.57575 
L 80.458416 124.526173 
L 82.282698 123.498698 
L 84.106979 122.491526 
L 85.931261 121.502975 
L 87.755543 120.531466 
L 89.579824 119.575508 
L 91.404106 118.633695 
L 93.228387 117.70469 
L 95.052669 116.787223 
L 96.87695 115.880079 
L 98.701232 114.982094 
L 100.525513 114.092146 
L 102.349795 113.209153 
L 104.174076 112.332063 
L 105.998358 111.459853 
L 107.822639 110.591519 
L 109.646921 109.726079 
L 111.471202 108.86256 
L 113.295484 108 
L 115.119765 107.13744 
L 116.944047 106.273921 
L 118.768328 105.408481 
L 120.59261 104.540147 
L 122.416891 103.667937 
L 124.241173 102.790847 
L 126.065455 101.907854 
L 127.889736 101.017906 
L 129.714018 100.119921 
L 131.538299 99.212777 
L 133.362581 98.29531 
L 135.186862 97.366305 
L 137.011144 96.424492 
L 138.835425 95.468534 
L 140.659707 94.497025 
L 142.483988 93.508474 
L 144.30827 92.501302 
L 146.132551 91.473827 
L 147.956833 90.42425 
L 149.781114 89.350647 
L 151.605396 88.250947 
L 153.429677 87.122921 
L 155.253959 85.964155 
L 157.07824 84.772035 
L 158.902522 83.543715 
L 160.726804 82.276094 
L 162.551085 80.965774 
L 164.375367 79.609031 
L 166.199648 78.201762 
L 168.02393 76.739437 
L 169.848211 75.217037 
L 171.672493 73.628982 
L 173.496774 71.969048 
L 175.321056 70.230268 
L 177.145337 68.404811 
L 178.969619 66.483842 
L 180.7939 64.457355 
L 182.618182 62.313964 
L 184.442463 60.040653 
L 186.266745 57.622472 
L 188.091026 55.042159 
L 189.915308 52.279668 
L 191.739589 49.311587 
L 193.563871 46.110384 
L 195.388152 42.643468 
L 197.212434 38.871953 
L 199.036716 34.749067 
L 200.860997 30.21803 
L 202.685279 25.20923 
L 204.50956 19.636364 
" style="fill:none;stroke:#1f77b4;stroke-linecap:square;"/>
   </g>
   <g id="line2d_2">
    <path clip-path="url(#p9fb76e35e1)" d="M 22.081408 172.504325 
L 23.905689 171.214239 
L 25.729971 169.924152 
L 27.554252 168.634066 
L 29.378534 167.343979 
L 31.202815 166.053893 
L 33.027097 164.763806 
L 34.851378 163.47372 
L 36.67566 162.183633 
L 38.499941 160.893547 
L 40.324223 159.60346 
L 42.148504 158.313374 
L 43.972786 157.023287 
L 45.797067 155.733201 
L 47.621349 154.443114 
L 49.44563 153.153028 
L 51.269912 151.862941 
L 53.094194 150.572855 
L 54.918475 149.282768 
L 56.742757 147.992682 
L 58.567038 146.702595 
L 60.39132 145.412509 
L 62.215601 144.122422 
L 64.039883 142.832336 
L 65.864164 141.542249 
L 67.688446 140.252163 
L 69.512727 138.962076 
L 71.337009 137.67199 
L 73.16129 136.381903 
L 74.985572 135.091817 
L 76.809853 133.80173 
L 78.634135 132.511644 
L 80.458416 131.221557 
L 82.282698 129.931471 
L 84.106979 128.641384 
L 85.931261 127.351298 
L 87.755543 126.061211 
L 89.579824 124.771125 
L 91.404106 123.481038 
L 93.228387 122.190952 
L 95.052669 120.900865 
L 96.87695 119.610779 
L 98.701232 118.320692 
L 100.525513 117.030606 
L 102.349795 115.740519 
L 104.174076 114.450433 
L 105.998358 113.160346 
L 107.822639 111.87026 
L 109.646921 110.580173 
L 111.471202 109.290087 
L 113.295484 108 
L 115.119765 106.709913 
L 116.944047 105.419827 
L 118.768328 104.12974 
L 120.59261 102.839654 
L 122.416891 101.549567 
L 124.241173 100.259481 
L 126.065455 98.969394 
L 127.889736 97.679308 
L 129.714018 96.389221 
L 131.538299 95.099135 
L 133.362581 93.809048 
L 135.186862 92.518962 
L 137.011144 91.228875 
L 138.835425 89.938789 
L 140.659707 88.648702 
L 142.483988 87.358616 
L 144.30827 86.068529 
L 146.132551 84.778443 
L 147.956833 83.488356 
L 149.781114 82.19827 
L 151.605396 80.908183 
L 153.429677 79.618097 
L 155.253959 78.32801 
L 157.07824 77.037924 
L 158.902522 75.747837 
L 160.726804 74.457751 
L 162.551085 73.167664 
L 164.375367 71.877578 
L 166.199648 70.587491 
L 168.02393 69.297405 
L 169.848211 68.007318 
L 171.672493 66.717232 
L 173.496774 65.427145 
L 175.321056 64.137059 
L 177.145337 62.846972 
L 178.969619 61.556886 
L 180.7939 60.266799 
L 182.618182 58.976713 
L 184.442463 57.686626 
L 186.266745 56.39654 
L 188.091026 55.106453 
L 189.915308 53.816367 
L 191.739589 52.52628 
L 193.563871 51.236194 
L 195.388152 49.946107 
L 197.212434 48.656021 
L 199.036716 47.365934 
L 200.860997 46.075848 
L 202.685279 44.785761 
L 204.50956 43.495675 
" style="fill:none;stroke:#008000;stroke-linecap:square;"/>
   </g>
   <g id="patch_3">
    <path d="M 12.96 205.2 
L 12.96 10.8 
" style="fill:none;stroke:#000000;stroke-linecap:square;stroke-linejoin:miter;stroke-width:0.8;"/>
   </g>
   <g id="patch_4">
    <path d="M 213.630968 205.2 
L 213.630968 10.8 
" style="fill:none;stroke:#000000;stroke-linecap:square;stroke-linejoin:miter;stroke-width:0.8;"/>
   </g>
   <g id="patch_5">
    <path d="M 12.96 205.2 
L 213.630968 205.2 
" style="fill:none;stroke:#000000;stroke-linecap:square;stroke-linejoin:miter;stroke-width:0.8;"/>
   </g>
   <g id="patch_6">
    <path d="M 12.96 10.8 
L 213.630968 10.8 
" style="fill:none;stroke:#000000;stroke-linecap:square;stroke-linejoin:miter;stroke-width:0.8;"/>
   </g>
  </g>
  <g id="axes_2">
   <g id="patch_7">
    <path d="M 223.664516 205.2 
L 424.335484 205.2 
L 424.335484 10.8 
L 223.664516 10.8 
z
" style="fill:#ffffff;"/>
   </g>
   <g id="matplotlib.axis_3"/>
   <g id="matplotlib.axis_4"/>
   <g id="line2d_3">
    <path clip-path="url(#p2fc22a9328)" d="M 232.785924 196.363636 
L 234.610205 193.630321 
L 236.434487 190.978978 
L 238.258768 188.404723 
L 240.08305 185.903025 
L 241.907331 183.469675 
L 243.731613 181.100757 
L 245.555894 178.792622 
L 247.380176 176.541862 
L 249.204457 174.345295 
L 251.028739 172.19994 
L 252.853021 170.103004 
L 254.677302 168.051865 
L 256.501584 166.04406 
L 258.325865 164.077269 
L 260.150147 162.149306 
L 261.974428 160.258109 
L 263.79871 158.401728 
L 265.622991 156.57832 
L 267.447273 154.786137 
L 269.271554 153.023522 
L 271.095836 151.288899 
L 272.920117 149.580771 
L 274.744399 147.897712 
L 276.56868 146.23836 
L 278.392962 144.601417 
L 280.217243 142.985639 
L 282.041525 141.389836 
L 283.865806 139.812867 
L 285.690088 138.253635 
L 287.51437 136.711086 
L 289.338651 135.184204 
L 291.162933 133.67201 
L 292.987214 132.173555 
L 294.811496 130.687926 
L 296.635777 129.214232 
L 298.460059 127.751613 
L 300.28434 126.299229 
L 302.108622 124.856265 
L 303.932903 123.421923 
L 305.757185 121.995425 
L 307.581466 120.576008 
L 309.405748 119.162923 
L 311.230029 117.755436 
L 313.054311 116.352823 
L 314.878592 114.954369 
L 316.702874 113.559369 
L 318.527155 112.167123 
L 320.351437 110.776939 
L 322.175718 109.388127 
L 324 108 
L 325.824282 106.611873 
L 327.648563 105.223061 
L 329.472845 103.832877 
L 331.297126 102.440631 
L 333.121408 101.045631 
L 334.945689 99.647177 
L 336.769971 98.244564 
L 338.594252 96.837077 
L 340.418534 95.423992 
L 342.242815 94.004575 
L 344.067097 92.578077 
L 345.891378 91.143735 
L 347.71566 89.700771 
L 349.539941 88.248387 
L 351.364223 86.785768 
L 353.188504 85.312074 
L 355.012786 83.826445 
L 356.837067 82.32799 
L 358.661349 80.815796 
L 360.48563 79.288914 
L 362.309912 77.746365 
L 364.134194 76.187133 
L 365.958475 74.610164 
L 367.782757 73.014361 
L 369.607038 71.398583 
L 371.43132 69.76164 
L 373.255601 68.102288 
L 375.079883 66.419229 
L 376.904164 64.711101 
L 378.728446 62.976478 
L 380.552727 61.213863 
L 382.377009 59.42168 
L 384.20129 57.598272 
L 386.025572 55.741891 
L 387.849853 53.850694 
L 389.674135 51.922731 
L 391.498416 49.95594 
L 393.322698 47.948135 
L 395.146979 45.896996 
L 396.971261 43.80006 
L 398.795543 41.654705 
L 400.619824 39.458138 
L 402.444106 37.207378 
L 404.268387 34.899243 
L 406.092669 32.530325 
L 407.91695 30.096975 
L 409.741232 27.595277 
L 411.565513 25.021022 
L 413.389795 22.369679 
L 415.214076 19.636364 
" style="fill:none;stroke:#1f77b4;stroke-linecap:square;"/>
   </g>
   <g id="line2d_4">
    <path clip-path="url(#p2fc22a9328)" d="M 232.785924 188.095495 
L 234.610205 186.493586 
L 236.434487 184.891676 
L 238.258768 183.289766 
L 240.08305 181.687856 
L 241.907331 180.085946 
L 243.731613 178.484036 
L 245.555894 176.882126 
L 247.380176 175.280216 
L 249.204457 173.678306 
L 251.028739 172.076396 
L 252.853021 170.474486 
L 254.677302 168.872577 
L 256.501584 167.270667 
L 258.325865 165.668757 
L 260.150147 164.066847 
L 261.974428 162.464937 
L 263.79871 160.863027 
L 265.622991 159.261117 
L 267.447273 157.659207 
L 269.271554 156.057297 
L 271.095836 154.455387 
L 272.920117 152.853477 
L 274.744399 151.251568 
L 276.56868 149.649658 
L 278.392962 148.047748 
L 280.217243 146.445838 
L 282.041525 144.843928 
L 283.865806 143.242018 
L 285.690088 141.640108 
L 287.51437 140.038198 
L 289.338651 138.436288 
L 291.162933 136.834378 
L 292.987214 135.232468 
L 294.811496 133.630559 
L 296.635777 132.028649 
L 298.460059 130.426739 
L 300.28434 128.824829 
L 302.108622 127.222919 
L 303.932903 125.621009 
L 305.757185 124.019099 
L 307.581466 122.417189 
L 309.405748 120.815279 
L 311.230029 119.213369 
L 313.054311 117.611459 
L 314.878592 116.00955 
L 316.702874 114.40764 
L 318.527155 112.80573 
L 320.351437 111.20382 
L 322.175718 109.60191 
L 324 108 
L 325.824282 106.39809 
L 327.648563 104.79618 
L 329.472845 103.19427 
L 331.297126 101.59236 
L 333.121408 99.99045 
L 334.945689 98.388541 
L 336.769971 96.786631 
L 338.594252 95.184721 
L 340.418534 93.582811 
L 342.242815 91.980901 
L 344.067097 90.378991 
L 345.891378 88.777081 
L 347.71566 87.175171 
L 349.539941 85.573261 
L 351.364223 83.971351 
L 353.188504 82.369441 
L 355.012786 80.767532 
L 356.837067 79.165622 
L 358.661349 77.563712 
L 360.48563 75.961802 
L 362.309912 74.359892 
L 364.134194 72.757982 
L 365.958475 71.156072 
L 367.782757 69.554162 
L 369.607038 67.952252 
L 371.43132 66.350342 
L 373.255601 64.748432 
L 375.079883 63.146523 
L 376.904164 61.544613 
L 378.728446 59.942703 
L 380.552727 58.340793 
L 382.377009 56.738883 
L 384.20129 55.136973 
L 386.025572 53.535063 
L 387.849853 51.933153 
L 389.674135 50.331243 
L 391.498416 48.729333 
L 393.322698 47.127423 
L 395.146979 45.525514 
L 396.971261 43.923604 
L 398.795543 42.321694 
L 400.619824 40.719784 
L 402.444106 39.117874 
L 404.268387 37.515964 
L 406.092669 35.914054 
L 407.91695 34.312144 
L 409.741232 32.710234 
L 411.565513 31.108324 
L 413.389795 29.506414 
L 415.214076 27.904505 
" style="fill:none;stroke:#008000;stroke-linecap:square;"/>
   </g>
   <g id="patch_8">
    <path d="M 223.664516 205.2 
L 223.664516 10.8 
" style="fill:none;stroke:#000000;stroke-linecap:square;stroke-linejoin:miter;stroke-width:0.8;"/>
   </g>
   <g id="patch_9">
    <path d="M 424.335484 205.2 
L 424.335484 10.8 
" style="fill:none;stroke:#000000;stroke-linecap:square;stroke-linejoin:miter;stroke-width:0.8;"/>
   </g>
   <g id="patch_10">
    <path d="M 223.664516 205.2 
L 424.335484 205.2 
" style="fill:none;stroke:#000000;stroke-linecap:square;stroke-linejoin:miter;stroke-width:0.8;"/>
   </g>
   <g id="patch_11">
    <path d="M 223.664516 10.8 
L 424.335484 10.8 
" style="fill:none;stroke:#000000;stroke-linecap:square;stroke-linejoin:miter;stroke-width:0.8;"/>
   </g>
  </g>
  <g id="axes_3">
   <g id="patch_12">
    <path d="M 434.369032 205.2 
L 635.04 205.2 
L 635.04 10.8 
L 434.369032 10.8 
z
" style="fill:#ffffff;"/>
   </g>
   <g id="matplotlib.axis_5"/>
   <g id="matplotlib.axis_6"/>
   <g id="line2d_5">
    <path clip-path="url(#pe0834d9767)" d="M 443.49044 196.363636 
L 445.314721 194.407015 
L 447.139003 192.462803 
L 448.963284 190.530646 
L 450.787566 188.610194 
L 452.611848 186.701109 
L 454.436129 184.803054 
L 456.260411 182.915703 
L 458.084692 181.038735 
L 459.908974 179.171835 
L 461.733255 177.314693 
L 463.557537 175.467005 
L 465.381818 173.628474 
L 467.2061 171.798806 
L 469.030381 169.977714 
L 470.854663 168.164913 
L 472.678944 166.360125 
L 474.503226 164.563077 
L 476.327507 162.773498 
L 478.151789 160.991122 
L 479.97607 159.215687 
L 481.800352 157.446935 
L 483.624633 155.684612 
L 485.448915 153.928465 
L 487.273196 152.178248 
L 489.097478 150.433715 
L 490.92176 148.694624 
L 492.746041 146.960737 
L 494.570323 145.231816 
L 496.394604 143.50763 
L 498.218886 141.787945 
L 500.043167 140.072534 
L 501.867449 138.361169 
L 503.69173 136.653625 
L 505.516012 134.949681 
L 507.340293 133.249114 
L 509.164575 131.551707 
L 510.988856 129.85724 
L 512.813138 128.165498 
L 514.637419 126.476267 
L 516.461701 124.789332 
L 518.285982 123.104481 
L 520.110264 121.421504 
L 521.934545 119.740188 
L 523.758827 118.060326 
L 525.583109 116.381707 
L 527.40739 114.704124 
L 529.231672 113.027369 
L 531.055953 111.351235 
L 532.880235 109.675514 
L 534.704516 108 
L 536.528798 106.324486 
L 538.353079 104.648765 
L 540.177361 102.972631 
L 542.001642 101.295876 
L 543.825924 99.618293 
L 545.650205 97.939674 
L 547.474487 96.259812 
L 549.298768 94.578496 
L 551.12305 92.895519 
L 552.947331 91.210668 
L 554.771613 89.523733 
L 556.595894 87.834502 
L 558.420176 86.14276 
L 560.244457 84.448293 
L 562.068739 82.750886 
L 563.893021 81.050319 
L 565.717302 79.346375 
L 567.541584 77.638831 
L 569.365865 75.927466 
L 571.190147 74.212055 
L 573.014428 72.49237 
L 574.83871 70.768184 
L 576.662991 69.039263 
L 578.487273 67.305376 
L 580.311554 65.566285 
L 582.135836 63.821752 
L 583.960117 62.071535 
L 585.784399 60.315388 
L 587.60868 58.553065 
L 589.432962 56.784313 
L 591.257243 55.008878 
L 593.081525 53.226502 
L 594.905806 51.436923 
L 596.730088 49.639875 
L 598.55437 47.835087 
L 600.378651 46.022286 
L 602.202933 44.201194 
L 604.027214 42.371526 
L 605.851496 40.532995 
L 607.675777 38.685307 
L 609.500059 36.828165 
L 611.32434 34.961265 
L 613.148622 33.084297 
L 614.972903 31.196946 
L 616.797185 29.298891 
L 618.621466 27.389806 
L 620.445748 25.469354 
L 622.270029 23.537197 
L 624.094311 21.592985 
L 625.918592 19.636364 
" style="fill:none;stroke:#1f77b4;stroke-linecap:square;"/>
   </g>
   <g id="line2d_6">
    <path clip-path="url(#pe0834d9767)" d="M 443.49044 194.533693 
L 445.314721 192.803019 
L 447.139003 191.072345 
L 448.963284 189.341671 
L 450.787566 187.610997 
L 452.611848 185.880323 
L 454.436129 184.149649 
L 456.260411 182.418976 
L 458.084692 180.688302 
L 459.908974 178.957628 
L 461.733255 177.226954 
L 463.557537 175.49628 
L 465.381818 173.765606 
L 467.2061 172.034933 
L 469.030381 170.304259 
L 470.854663 168.573585 
L 472.678944 166.842911 
L 474.503226 165.112237 
L 476.327507 163.381563 
L 478.151789 161.650889 
L 479.97607 159.920216 
L 481.800352 158.189542 
L 483.624633 156.458868 
L 485.448915 154.728194 
L 487.273196 152.99752 
L 489.097478 151.266846 
L 490.92176 149.536172 
L 492.746041 147.805499 
L 494.570323 146.074825 
L 496.394604 144.344151 
L 498.218886 142.613477 
L 500.043167 140.882803 
L 501.867449 139.152129 
L 503.69173 137.421455 
L 505.516012 135.690782 
L 507.340293 133.960108 
L 509.164575 132.229434 
L 510.988856 130.49876 
L 512.813138 128.768086 
L 514.637419 127.037412 
L 516.461701 125.306739 
L 518.285982 123.576065 
L 520.110264 121.845391 
L 521.934545 120.114717 
L 523.758827 118.384043 
L 525.583109 116.653369 
L 527.40739 114.922695 
L 529.231672 113.192022 
L 531.055953 111.461348 
L 532.880235 109.730674 
L 534.704516 108 
L 536.528798 106.269326 
L 538.353079 104.538652 
L 540.177361 102.807978 
L 542.001642 101.077305 
L 543.825924 99.346631 
L 545.650205 97.615957 
L 547.474487 95.885283 
L 549.298768 94.154609 
L 551.12305 92.423935 
L 552.947331 90.693261 
L 554.771613 88.962588 
L 556.595894 87.231914 
L 558.420176 85.50124 
L 560.244457 83.770566 
L 562.068739 82.039892 
L 563.893021 80.309218 
L 565.717302 78.578545 
L 567.541584 76.847871 
L 569.365865 75.117197 
L 571.190147 73.386523 
L 573.014428 71.655849 
L 574.83871 69.925175 
L 576.662991 68.194501 
L 578.487273 66.463828 
L 580.311554 64.733154 
L 582.135836 63.00248 
L 583.960117 61.271806 
L 585.784399 59.541132 
L 587.60868 57.810458 
L 589.432962 56.079784 
L 591.257243 54.349111 
L 593.081525 52.618437 
L 594.905806 50.887763 
L 596.730088 49.157089 
L 598.55437 47.426415 
L 600.378651 45.695741 
L 602.202933 43.965067 
L 604.027214 42.234394 
L 605.851496 40.50372 
L 607.675777 38.773046 
L 609.500059 37.042372 
L 611.32434 35.311698 
L 613.148622 33.581024 
L 614.972903 31.850351 
L 616.797185 30.119677 
L 618.621466 28.389003 
L 620.445748 26.658329 
L 622.270029 24.927655 
L 624.094311 23.196981 
L 625.918592 21.466307 
" style="fill:none;stroke:#008000;stroke-linecap:square;"/>
   </g>
   <g id="patch_13">
    <path d="M 434.369032 205.2 
L 434.369032 10.8 
" style="fill:none;stroke:#000000;stroke-linecap:square;stroke-linejoin:miter;stroke-width:0.8;"/>
   </g>
   <g id="patch_14">
    <path d="M 635.04 205.2 
L 635.04 10.8 
" style="fill:none;stroke:#000000;stroke-linecap:square;stroke-linejoin:miter;stroke-width:0.8;"/>
   </g>
   <g id="patch_15">
    <path d="M 434.369032 205.2 
L 635.04 205.2 
" style="fill:none;stroke:#000000;stroke-linecap:square;stroke-linejoin:miter;stroke-width:0.8;"/>
   </g>
   <g id="patch_16">
    <path d="M 434.369032 10.8 
L 635.04 10.8 
" style="fill:none;stroke:#000000;stroke-linecap:square;stroke-linejoin:miter;stroke-width:0.8;"/>
   </g>
  </g>
 </g>
 <defs>
  <clipPath id="p9fb76e35e1">
   <rect height="194.4" width="200.670968" x="12.96" y="10.8"/>
  </clipPath>
  <clipPath id="p2fc22a9328">
   <rect height="194.4" width="200.670968" x="223.664516" y="10.8"/>
  </clipPath>
  <clipPath id="pe0834d9767">
   <rect height="194.4" width="200.670968" x="434.369032" y="10.8"/>
  </clipPath>
 </defs>
</svg>
