<?xml version="1.0" encoding="utf-8" standalone="no"?>
<!DOCTYPE svg PUBLIC "-//W3C//DTD SVG 1.1//EN"
  "http://www.w3.org/Graphics/SVG/1.1/DTD/svg11.dtd">
<!-- Created with matplotlib (https://matplotlib.org/) -->
<svg height="216pt" version="1.1" viewBox="0 0 648 216" width="648pt" xmlns="http://www.w3.org/2000/svg" xmlns:xlink="http://www.w3.org/1999/xlink">
 <metadata>
  <rdf:RDF xmlns:cc="http://creativecommons.org/ns#" xmlns:dc="http://purl.org/dc/elements/1.1/" xmlns:rdf="http://www.w3.org/1999/02/22-rdf-syntax-ns#">
   <cc:Work>
    <dc:type rdf:resource="http://purl.org/dc/dcmitype/StillImage"/>
    <dc:date>2020-10-15T06:01:36.782276</dc:date>
    <dc:format>image/svg+xml</dc:format>
    <dc:creator>
     <cc:Agent>
      <dc:title>Matplotlib v3.3.2, https://matplotlib.org/</dc:title>
     </cc:Agent>
    </dc:creator>
   </cc:Work>
  </rdf:RDF>
 </metadata>
 <defs>
  <style type="text/css">*{stroke-linecap:butt;stroke-linejoin:round;}</style>
 </defs>
 <g id="figure_1">
  <g id="patch_1">
   <path d="M 0 216 
L 648 216 
L 648 0 
L 0 0 
z
" style="fill:#ffffff;"/>
  </g>
  <g id="axes_1">
   <g id="patch_2">
    <path d="M 12.96 205.2 
L 213.630968 205.2 
L 213.630968 10.8 
L 12.96 10.8 
z
" style="fill:#ffffff;"/>
   </g>
   <g id="matplotlib.axis_1"/>
   <g id="matplotlib.axis_2"/>
   <g id="line2d_1">
    <path clip-path="url(#p91ad0f7b02)" d="M 22.081408 196.363636 
L 23.924116 190.609315 
L 25.766825 185.437426 
L 27.609533 180.758857 
L 29.452242 176.501727 
L 31.294951 172.60741 
L 33.137659 169.027609 
L 34.980368 165.722174 
L 36.823077 162.657451 
L 38.665785 159.805012 
L 40.508494 157.140683 
L 42.351202 154.643765 
L 44.193911 152.296434 
L 46.03662 150.083252 
L 47.879328 147.990782 
L 49.722037 146.007266 
L 51.564745 144.122371 
L 53.407454 142.326975 
L 55.250163 140.612994 
L 57.092871 138.973231 
L 58.93558 137.401261 
L 60.778288 135.891322 
L 62.620997 134.438231 
L 64.463706 133.037312 
L 66.306414 131.684328 
L 68.149123 130.375432 
L 69.991832 129.107118 
L 71.83454 127.876182 
L 73.677249 126.679686 
L 75.519957 125.51493 
L 77.362666 124.379424 
L 79.205375 123.270864 
L 81.048083 122.187112 
L 82.890792 121.126182 
L 84.7335 120.086216 
L 86.576209 119.065478 
L 88.418918 118.062336 
L 90.261626 117.075251 
L 92.104335 116.102772 
L 93.947043 115.143518 
L 95.789752 114.196178 
L 97.632461 113.259497 
L 99.475169 112.332273 
L 101.317878 111.413349 
L 103.160587 110.501605 
L 105.003295 109.595956 
L 106.846004 108.695346 
L 108.688712 107.79874 
L 110.531421 106.90512 
L 112.37413 106.013485 
L 114.216838 105.122839 
L 116.059547 104.232194 
L 117.902255 103.340558 
L 119.744964 102.446939 
L 121.587673 101.550332 
L 123.430381 100.649722 
L 125.27309 99.744074 
L 127.115798 98.83233 
L 128.958507 97.913406 
L 130.801216 96.986182 
L 132.643924 96.049501 
L 134.486633 95.10216 
L 136.329342 94.142907 
L 138.17205 93.170427 
L 140.014759 92.183343 
L 141.857467 91.180201 
L 143.700176 90.159463 
L 145.542885 89.119497 
L 147.385593 88.058566 
L 149.228302 86.974815 
L 151.07101 85.866255 
L 152.913719 84.730748 
L 154.756428 83.565993 
L 156.599136 82.369497 
L 158.441845 81.138561 
L 160.284553 79.870247 
L 162.127262 78.561351 
L 163.969971 77.208367 
L 165.812679 75.807447 
L 167.655388 74.354357 
L 169.498097 72.844418 
L 171.340805 71.272448 
L 173.183514 69.632685 
L 175.026222 67.918703 
L 176.868931 66.123308 
L 178.71164 64.238412 
L 180.554348 62.254896 
L 182.397057 60.162426 
L 184.239765 57.949245 
L 186.082474 55.601914 
L 187.925183 53.104996 
L 189.767891 50.440666 
L 191.6106 47.588228 
L 193.453308 44.523504 
L 195.296017 41.218069 
L 197.138726 37.638269 
L 198.981434 33.743952 
L 200.824143 29.486822 
L 202.666852 24.808253 
L 204.50956 19.636364 
" style="fill:none;stroke:#1f77b4;stroke-linecap:square;stroke-width:1.5;"/>
   </g>
   <g id="line2d_2">
    <path clip-path="url(#p91ad0f7b02)" d="M 22.081408 171.234732 
L 23.924116 169.91757 
L 25.766825 168.600409 
L 27.609533 167.283248 
L 29.452242 165.966086 
L 31.294951 164.648925 
L 33.137659 163.331764 
L 34.980368 162.014603 
L 36.823077 160.697441 
L 38.665785 159.38028 
L 40.508494 158.063119 
L 42.351202 156.745957 
L 44.193911 155.428796 
L 46.03662 154.111635 
L 47.879328 152.794473 
L 49.722037 151.477312 
L 51.564745 150.160151 
L 53.407454 148.84299 
L 55.250163 147.525828 
L 57.092871 146.208667 
L 58.93558 144.891506 
L 60.778288 143.574344 
L 62.620997 142.257183 
L 64.463706 140.940022 
L 66.306414 139.62286 
L 68.149123 138.305699 
L 69.991832 136.988538 
L 71.83454 135.671377 
L 73.677249 134.354215 
L 75.519957 133.037054 
L 77.362666 131.719893 
L 79.205375 130.402731 
L 81.048083 129.08557 
L 82.890792 127.768409 
L 84.7335 126.451247 
L 86.576209 125.134086 
L 88.418918 123.816925 
L 90.261626 122.499764 
L 92.104335 121.182602 
L 93.947043 119.865441 
L 95.789752 118.54828 
L 97.632461 117.231118 
L 99.475169 115.913957 
L 101.317878 114.596796 
L 103.160587 113.279634 
L 105.003295 111.962473 
L 106.846004 110.645312 
L 108.688712 109.328151 
L 110.531421 108.010989 
L 112.37413 106.693828 
L 114.216838 105.376667 
L 116.059547 104.059505 
L 117.902255 102.742344 
L 119.744964 101.425183 
L 121.587673 100.108021 
L 123.430381 98.79086 
L 125.27309 97.473699 
L 127.115798 96.156538 
L 128.958507 94.839376 
L 130.801216 93.522215 
L 132.643924 92.205054 
L 134.486633 90.887892 
L 136.329342 89.570731 
L 138.17205 88.25357 
L 140.014759 86.936408 
L 141.857467 85.619247 
L 143.700176 84.302086 
L 145.542885 82.984925 
L 147.385593 81.667763 
L 149.228302 80.350602 
L 151.07101 79.033441 
L 152.913719 77.716279 
L 154.756428 76.399118 
L 156.599136 75.081957 
L 158.441845 73.764795 
L 160.284553 72.447634 
L 162.127262 71.130473 
L 163.969971 69.813312 
L 165.812679 68.49615 
L 167.655388 67.178989 
L 169.498097 65.861828 
L 171.340805 64.544666 
L 173.183514 63.227505 
L 175.026222 61.910344 
L 176.868931 60.593182 
L 178.71164 59.276021 
L 180.554348 57.95886 
L 182.397057 56.641699 
L 184.239765 55.324537 
L 186.082474 54.007376 
L 187.925183 52.690215 
L 189.767891 51.373053 
L 191.6106 50.055892 
L 193.453308 48.738731 
L 195.296017 47.421569 
L 197.138726 46.104408 
L 198.981434 44.787247 
L 200.824143 43.470086 
L 202.666852 42.152924 
L 204.50956 40.835763 
" style="fill:none;stroke:#008000;stroke-linecap:square;stroke-width:1.5;"/>
   </g>
   <g id="patch_3">
    <path d="M 12.96 205.2 
L 12.96 10.8 
" style="fill:none;stroke:#000000;stroke-linecap:square;stroke-linejoin:miter;stroke-width:0.8;"/>
   </g>
   <g id="patch_4">
    <path d="M 213.630968 205.2 
L 213.630968 10.8 
" style="fill:none;stroke:#000000;stroke-linecap:square;stroke-linejoin:miter;stroke-width:0.8;"/>
   </g>
   <g id="patch_5">
    <path d="M 12.96 205.2 
L 213.630968 205.2 
" style="fill:none;stroke:#000000;stroke-linecap:square;stroke-linejoin:miter;stroke-width:0.8;"/>
   </g>
   <g id="patch_6">
    <path d="M 12.96 10.8 
L 213.630968 10.8 
" style="fill:none;stroke:#000000;stroke-linecap:square;stroke-linejoin:miter;stroke-width:0.8;"/>
   </g>
  </g>
  <g id="axes_2">
   <g id="patch_7">
    <path d="M 223.664516 205.2 
L 424.335484 205.2 
L 424.335484 10.8 
L 223.664516 10.8 
z
" style="fill:#ffffff;"/>
   </g>
   <g id="matplotlib.axis_3"/>
   <g id="matplotlib.axis_4"/>
   <g id="line2d_3">
    <path clip-path="url(#pdec0f9c7ab)" d="M 232.785924 196.363636 
L 234.628632 193.587383 
L 236.471341 190.894389 
L 238.31405 188.279694 
L 240.156758 185.738696 
L 241.999467 183.267121 
L 243.842175 180.860989 
L 245.684884 178.516594 
L 247.527593 176.230477 
L 249.370301 173.999403 
L 251.21301 171.820346 
L 253.055718 169.690469 
L 254.898427 167.607108 
L 256.741136 165.567762 
L 258.583844 163.570074 
L 260.426553 161.611824 
L 262.269262 159.690918 
L 264.11197 157.805375 
L 265.954679 155.953322 
L 267.797387 154.132986 
L 269.640096 152.342681 
L 271.482805 150.580808 
L 273.325513 148.845847 
L 275.168222 147.136348 
L 277.01093 145.450929 
L 278.853639 143.788271 
L 280.696348 142.14711 
L 282.539056 140.526238 
L 284.381765 138.924496 
L 286.224473 137.34077 
L 288.067182 135.773989 
L 289.909891 134.223121 
L 291.752599 132.687171 
L 293.595308 131.165177 
L 295.438017 129.656209 
L 297.280725 128.159365 
L 299.123434 126.673769 
L 300.966142 125.19857 
L 302.808851 123.732938 
L 304.65156 122.276063 
L 306.494268 120.827156 
L 308.336977 119.385441 
L 310.179685 117.950158 
L 312.022394 116.52056 
L 313.865103 115.095913 
L 315.707811 113.67549 
L 317.55052 112.258575 
L 319.393228 110.844459 
L 321.235937 109.432436 
L 323.078646 108.021806 
L 324.921354 106.611873 
L 326.764063 105.20194 
L 328.606772 103.79131 
L 330.44948 102.379287 
L 332.292189 100.965171 
L 334.134897 99.548256 
L 335.977606 98.127834 
L 337.820315 96.703186 
L 339.663023 95.273589 
L 341.505732 93.838306 
L 343.34844 92.39659 
L 345.191149 90.947683 
L 347.033858 89.490809 
L 348.876566 88.025176 
L 350.719275 86.549977 
L 352.561983 85.064381 
L 354.404692 83.567537 
L 356.247401 82.058569 
L 358.090109 80.536575 
L 359.932818 79.000625 
L 361.775527 77.449757 
L 363.618235 75.882976 
L 365.460944 74.29925 
L 367.303652 72.697508 
L 369.146361 71.076636 
L 370.98907 69.435475 
L 372.831778 67.772817 
L 374.674487 66.087398 
L 376.517195 64.377899 
L 378.359904 62.642938 
L 380.202613 60.881066 
L 382.045321 59.090761 
L 383.88803 57.270424 
L 385.730738 55.418371 
L 387.573447 53.532828 
L 389.416156 51.611922 
L 391.258864 49.653672 
L 393.101573 47.655984 
L 394.944282 45.616638 
L 396.78699 43.533277 
L 398.629699 41.4034 
L 400.472407 39.224343 
L 402.315116 36.993269 
L 404.157825 34.707152 
L 406.000533 32.362757 
L 407.843242 29.956626 
L 409.68595 27.48505 
L 411.528659 24.944052 
L 413.371368 22.329357 
L 415.214076 19.636364 
" style="fill:none;stroke:#1f77b4;stroke-linecap:square;stroke-width:1.5;"/>
   </g>
   <g id="line2d_4">
    <path clip-path="url(#pdec0f9c7ab)" d="M 232.785924 187.797649 
L 234.628632 186.175664 
L 236.471341 184.553679 
L 238.31405 182.931694 
L 240.156758 181.309709 
L 241.999467 179.687723 
L 243.842175 178.065738 
L 245.684884 176.443753 
L 247.527593 174.821768 
L 249.370301 173.199783 
L 251.21301 171.577798 
L 253.055718 169.955813 
L 254.898427 168.333828 
L 256.741136 166.711843 
L 258.583844 165.089858 
L 260.426553 163.467873 
L 262.269262 161.845888 
L 264.11197 160.223903 
L 265.954679 158.601918 
L 267.797387 156.979933 
L 269.640096 155.357948 
L 271.482805 153.735963 
L 273.325513 152.113978 
L 275.168222 150.491993 
L 277.01093 148.870008 
L 278.853639 147.248023 
L 280.696348 145.626038 
L 282.539056 144.004053 
L 284.381765 142.382068 
L 286.224473 140.760083 
L 288.067182 139.138098 
L 289.909891 137.516113 
L 291.752599 135.894128 
L 293.595308 134.272143 
L 295.438017 132.650158 
L 297.280725 131.028173 
L 299.123434 129.406188 
L 300.966142 127.784203 
L 302.808851 126.162218 
L 304.65156 124.540233 
L 306.494268 122.918248 
L 308.336977 121.296263 
L 310.179685 119.674278 
L 312.022394 118.052293 
L 313.865103 116.430308 
L 315.707811 114.808323 
L 317.55052 113.186338 
L 319.393228 111.564353 
L 321.235937 109.942368 
L 323.078646 108.320383 
L 324.921354 106.698398 
L 326.764063 105.076413 
L 328.606772 103.454428 
L 330.44948 101.832443 
L 332.292189 100.210458 
L 334.134897 98.588473 
L 335.977606 96.966488 
L 337.820315 95.344503 
L 339.663023 93.722518 
L 341.505732 92.100533 
L 343.34844 90.478548 
L 345.191149 88.856563 
L 347.033858 87.234578 
L 348.876566 85.612593 
L 350.719275 83.990608 
L 352.561983 82.368623 
L 354.404692 80.746638 
L 356.247401 79.124653 
L 358.090109 77.502668 
L 359.932818 75.880683 
L 361.775527 74.258698 
L 363.618235 72.636713 
L 365.460944 71.014728 
L 367.303652 69.392743 
L 369.146361 67.770758 
L 370.98907 66.148773 
L 372.831778 64.526788 
L 374.674487 62.904803 
L 376.517195 61.282818 
L 378.359904 59.660833 
L 380.202613 58.038848 
L 382.045321 56.416863 
L 383.88803 54.794878 
L 385.730738 53.172893 
L 387.573447 51.550908 
L 389.416156 49.928923 
L 391.258864 48.306938 
L 393.101573 46.684953 
L 394.944282 45.062968 
L 396.78699 43.440983 
L 398.629699 41.818998 
L 400.472407 40.197013 
L 402.315116 38.575028 
L 404.157825 36.953043 
L 406.000533 35.331058 
L 407.843242 33.709073 
L 409.68595 32.087088 
L 411.528659 30.465103 
L 413.371368 28.843118 
L 415.214076 27.221133 
" style="fill:none;stroke:#008000;stroke-linecap:square;stroke-width:1.5;"/>
   </g>
   <g id="patch_8">
    <path d="M 223.664516 205.2 
L 223.664516 10.8 
" style="fill:none;stroke:#000000;stroke-linecap:square;stroke-linejoin:miter;stroke-width:0.8;"/>
   </g>
   <g id="patch_9">
    <path d="M 424.335484 205.2 
L 424.335484 10.8 
" style="fill:none;stroke:#000000;stroke-linecap:square;stroke-linejoin:miter;stroke-width:0.8;"/>
   </g>
   <g id="patch_10">
    <path d="M 223.664516 205.2 
L 424.335484 205.2 
" style="fill:none;stroke:#000000;stroke-linecap:square;stroke-linejoin:miter;stroke-width:0.8;"/>
   </g>
   <g id="patch_11">
    <path d="M 223.664516 10.8 
L 424.335484 10.8 
" style="fill:none;stroke:#000000;stroke-linecap:square;stroke-linejoin:miter;stroke-width:0.8;"/>
   </g>
  </g>
  <g id="axes_3">
   <g id="patch_12">
    <path d="M 434.369032 205.2 
L 635.04 205.2 
L 635.04 10.8 
L 434.369032 10.8 
z
" style="fill:#ffffff;"/>
   </g>
   <g id="matplotlib.axis_5"/>
   <g id="matplotlib.axis_6"/>
   <g id="line2d_5">
    <path clip-path="url(#p9a877e1420)" d="M 443.49044 196.363636 
L 445.333148 194.38511 
L 447.175857 192.419132 
L 449.018566 190.465343 
L 450.861274 188.523392 
L 452.703983 186.592933 
L 454.546692 184.673629 
L 456.3894 182.765149 
L 458.232109 180.867168 
L 460.074817 178.979367 
L 461.917526 177.101433 
L 463.760235 175.23306 
L 465.602943 173.373946 
L 467.445652 171.523794 
L 469.28836 169.682314 
L 471.131069 167.849218 
L 472.973778 166.024225 
L 474.816486 164.207058 
L 476.659195 162.397444 
L 478.501903 160.595114 
L 480.344612 158.799802 
L 482.187321 157.011248 
L 484.030029 155.229195 
L 485.872738 153.453388 
L 487.715447 151.683576 
L 489.558155 149.919512 
L 491.400864 148.160952 
L 493.243572 146.407653 
L 495.086281 144.659377 
L 496.92899 142.915887 
L 498.771698 141.17695 
L 500.614407 139.442334 
L 502.457115 137.71181 
L 504.299824 135.98515 
L 506.142533 134.262129 
L 507.985241 132.542524 
L 509.82795 130.826113 
L 511.670658 129.112677 
L 513.513367 127.401995 
L 515.356076 125.693852 
L 517.198784 123.988031 
L 519.041493 122.284318 
L 520.884202 120.582499 
L 522.72691 118.882361 
L 524.569619 117.183691 
L 526.412327 115.48628 
L 528.255036 113.789916 
L 530.097745 112.094389 
L 531.940453 110.39949 
L 533.783162 108.705009 
L 535.62587 107.010737 
L 537.468579 105.316465 
L 539.311288 103.621984 
L 541.153996 101.927084 
L 542.996705 100.231558 
L 544.839413 98.535193 
L 546.682122 96.837782 
L 548.524831 95.139113 
L 550.367539 93.438975 
L 552.210248 91.737155 
L 554.052957 90.033442 
L 555.895665 88.327621 
L 557.738374 86.619478 
L 559.581082 84.908797 
L 561.423791 83.19536 
L 563.2665 81.478949 
L 565.109208 79.759345 
L 566.951917 78.036324 
L 568.794625 76.309664 
L 570.637334 74.579139 
L 572.480043 72.844523 
L 574.322751 71.105586 
L 576.16546 69.362097 
L 578.008168 67.61382 
L 579.850877 65.860522 
L 581.693586 64.101961 
L 583.536294 62.337897 
L 585.379003 60.568086 
L 587.221712 58.792278 
L 589.06442 57.010225 
L 590.907129 55.221671 
L 592.749837 53.42636 
L 594.592546 51.62403 
L 596.435255 49.814415 
L 598.277963 47.997248 
L 600.120672 46.172256 
L 601.96338 44.33916 
L 603.806089 42.49768 
L 605.648798 40.647528 
L 607.491506 38.788414 
L 609.334215 36.92004 
L 611.176923 35.042107 
L 613.019632 33.154306 
L 614.862341 31.256325 
L 616.705049 29.347844 
L 618.547758 27.428541 
L 620.390467 25.498082 
L 622.233175 23.55613 
L 624.075884 21.602342 
L 625.918592 19.636364 
" style="fill:none;stroke:#1f77b4;stroke-linecap:square;stroke-width:1.5;"/>
   </g>
   <g id="line2d_6">
    <path clip-path="url(#p9a877e1420)" d="M 443.49044 194.476197 
L 445.333148 192.727269 
L 447.175857 190.978341 
L 449.018566 189.229413 
L 450.861274 187.480485 
L 452.703983 185.731558 
L 454.546692 183.98263 
L 456.3894 182.233702 
L 458.232109 180.484774 
L 460.074817 178.735846 
L 461.917526 176.986918 
L 463.760235 175.23799 
L 465.602943 173.489062 
L 467.445652 171.740134 
L 469.28836 169.991206 
L 471.131069 168.242279 
L 472.973778 166.493351 
L 474.816486 164.744423 
L 476.659195 162.995495 
L 478.501903 161.246567 
L 480.344612 159.497639 
L 482.187321 157.748711 
L 484.030029 155.999783 
L 485.872738 154.250855 
L 487.715447 152.501927 
L 489.558155 150.752999 
L 491.400864 149.004072 
L 493.243572 147.255144 
L 495.086281 145.506216 
L 496.92899 143.757288 
L 498.771698 142.00836 
L 500.614407 140.259432 
L 502.457115 138.510504 
L 504.299824 136.761576 
L 506.142533 135.012648 
L 507.985241 133.26372 
L 509.82795 131.514792 
L 511.670658 129.765865 
L 513.513367 128.016937 
L 515.356076 126.268009 
L 517.198784 124.519081 
L 519.041493 122.770153 
L 520.884202 121.021225 
L 522.72691 119.272297 
L 524.569619 117.523369 
L 526.412327 115.774441 
L 528.255036 114.025513 
L 530.097745 112.276586 
L 531.940453 110.527658 
L 533.783162 108.77873 
L 535.62587 107.029802 
L 537.468579 105.280874 
L 539.311288 103.531946 
L 541.153996 101.783018 
L 542.996705 100.03409 
L 544.839413 98.285162 
L 546.682122 96.536234 
L 548.524831 94.787306 
L 550.367539 93.038379 
L 552.210248 91.289451 
L 554.052957 89.540523 
L 555.895665 87.791595 
L 557.738374 86.042667 
L 559.581082 84.293739 
L 561.423791 82.544811 
L 563.2665 80.795883 
L 565.109208 79.046955 
L 566.951917 77.298027 
L 568.794625 75.5491 
L 570.637334 73.800172 
L 572.480043 72.051244 
L 574.322751 70.302316 
L 576.16546 68.553388 
L 578.008168 66.80446 
L 579.850877 65.055532 
L 581.693586 63.306604 
L 583.536294 61.557676 
L 585.379003 59.808748 
L 587.221712 58.05982 
L 589.06442 56.310893 
L 590.907129 54.561965 
L 592.749837 52.813037 
L 594.592546 51.064109 
L 596.435255 49.315181 
L 598.277963 47.566253 
L 600.120672 45.817325 
L 601.96338 44.068397 
L 603.806089 42.319469 
L 605.648798 40.570541 
L 607.491506 38.821614 
L 609.334215 37.072686 
L 611.176923 35.323758 
L 613.019632 33.57483 
L 614.862341 31.825902 
L 616.705049 30.076974 
L 618.547758 28.328046 
L 620.390467 26.579118 
L 622.233175 24.83019 
L 624.075884 23.081262 
L 625.918592 21.332334 
" style="fill:none;stroke:#008000;stroke-linecap:square;stroke-width:1.5;"/>
   </g>
   <g id="patch_13">
    <path d="M 434.369032 205.2 
L 434.369032 10.8 
" style="fill:none;stroke:#000000;stroke-linecap:square;stroke-linejoin:miter;stroke-width:0.8;"/>
   </g>
   <g id="patch_14">
    <path d="M 635.04 205.2 
L 635.04 10.8 
" style="fill:none;stroke:#000000;stroke-linecap:square;stroke-linejoin:miter;stroke-width:0.8;"/>
   </g>
   <g id="patch_15">
    <path d="M 434.369032 205.2 
L 635.04 205.2 
" style="fill:none;stroke:#000000;stroke-linecap:square;stroke-linejoin:miter;stroke-width:0.8;"/>
   </g>
   <g id="patch_16">
    <path d="M 434.369032 10.8 
L 635.04 10.8 
" style="fill:none;stroke:#000000;stroke-linecap:square;stroke-linejoin:miter;stroke-width:0.8;"/>
   </g>
  </g>
 </g>
 <defs>
  <clipPath id="p91ad0f7b02">
   <rect height="194.4" width="200.670968" x="12.96" y="10.8"/>
  </clipPath>
  <clipPath id="pdec0f9c7ab">
   <rect height="194.4" width="200.670968" x="223.664516" y="10.8"/>
  </clipPath>
  <clipPath id="p9a877e1420">
   <rect height="194.4" width="200.670968" x="434.369032" y="10.8"/>
  </clipPath>
 </defs>
</svg>
